@startuml Anwendungskern

!pragma useNewPackage
skinparam classAttributeIconSize 0
skinparam componentStyle uml2

package mongoose {
  class Schema

  class "model()" as model
  hide model circle
}

package film.entity {
  class "validateFilm()" as validateFilm
  hide validateFilm circle

  class FilmModel
  hide FilmModel circle

  FilmModel ..> Schema
  FilmModel ..> model
  FilmModel ..> validateFilm

  FilmData ..> Sprache


  enum FilmArt {
    DEUTSCH
    ENGLISCH
    FRANZÖSISCH
  }

  

  interface FilmData <<entity>> {
    + _id?: string
    + __v?: number
    + createdAt?: number
    + updatedAt?: number
    + titel: string
    + regisseur: any
    + datum: string
    + kategorien?: Array<string>
    + sprache: Sprache
    + hauptdarsteller: any
    + dauer: number
    + homepage: string
    
  }
}

hide empty members

@enduml
